# xmcd CD database file
#
# Track frame offsets:
#	150
#	21102
#	44985
#	50742
#	67327
#	84030
#	99850
#	118310
#	143917
#	163270
#	184317
#	201377
#	222810
#	246780
#	267720
#
# Disc length: 3916 seconds
#
# Revision: 0
# Processed by: cddbd v1.5.1PL0 Copyright (c) Steve Scherf et al.
# Submitted via: CDex 1.51
#
DISCID=f00f4a0f
DTITLE=US3 - Hand on the Torch (+ 2 bonus tracks)
DYEAR=1900
DGENRE=Jazz
TTITLE0=Cantaloop (Flip Fantasia)
TTITLE1=I Got It Goin' On
TTITLE2=Different Rythhms, Different People
TTITLE3=It's Like That
TTITLE4=Just Another Brother
TTITLE5=Cruisin'
TTITLE6=I Go To Work
TTITLE7=Tukka Yoot's Riddim
TTITLE8=Knowledge of Self
TTITLE9=Lazy Day
TTITLE10=Eleven Long Years
TTITLE11=Make Trucks
TTITLE12=The Darkside
TTITLE13=Cantaloop (Nelle Hooper Remix)
TTITLE14=Tukka Yoot's Riddim (Robertos's Riddim Remix)
EXTD=
EXTT0=
EXTT1=
EXTT2=
EXTT3=
EXTT4=
EXTT5=
EXTT6=
EXTT7=
EXTT8=
EXTT9=
EXTT10=
EXTT11=
EXTT12=
EXTT13=
EXTT14=
PLAYORDER=
